<svg viewBox="0 0 800 920" xmlns="http://www.w3.org/2000/svg" font-family="'Segoe UI', Arial, sans-serif">
  <defs>
    <marker id="arr" markerWidth="8" markerHeight="8" refX="7" refY="3.5" orient="auto" markerUnits="strokeWidth">
      <path d="M0,0 L7,3.5 L0,7" fill="none" stroke="#4A5568" stroke-width="1.2" stroke-linecap="round" stroke-linejoin="round"/>
    </marker>
    <marker id="arr-dash" markerWidth="8" markerHeight="8" refX="7" refY="3.5" orient="auto" markerUnits="strokeWidth">
      <path d="M0,0 L7,3.5 L0,7" fill="none" stroke="#64748B" stroke-width="1.2" stroke-linecap="round" stroke-linejoin="round"/>
    </marker>
    <filter id="shadow" x="-15%" y="-15%" width="130%" height="140%">
      <feDropShadow dx="0" dy="2" stdDeviation="3" flood-color="#00000014"/>
    </filter>
  </defs>

  <rect width="800" height="920" fill="#F7F8FA"/>

  <!-- Entidad externa -->
  <g filter="url(#shadow)">
    <rect x="52" y="36" width="148" height="56" rx="3" fill="#ffffff" stroke="#CBD5E1" stroke-width="1"/>
    <rect x="57" y="41" width="138" height="46" rx="2" fill="none" stroke="#CBD5E1" stroke-width="0.8"/>
  </g>
  <text x="126" y="58" text-anchor="middle" font-size="11" font-weight="700" fill="#0F172A">Entrenador</text>
  <text x="126" y="73" text-anchor="middle" font-size="10" fill="#64748B">/ Analista</text>
  <text x="126" y="87" text-anchor="middle" font-size="8.5" fill="#94A3B8" font-style="italic">entidad externa</text>

  <!-- Nota snowball -->
  <rect x="528" y="36" width="252" height="66" rx="4" fill="#EFF6FF" stroke="#3B82F6" stroke-width="1"/>
  <text x="654" y="56" text-anchor="middle" font-size="9" font-weight="600" fill="#1E40AF">Modelo snowball</text>
  <text x="654" y="71" text-anchor="middle" font-size="8.5" fill="#3B82F6">cada etapa enriquece el contexto</text>
  <text x="654" y="86" text-anchor="middle" font-size="8.5" fill="#64748B" font-style="italic">≡ FrameContext en pipeline/context.py</text>

  <!-- PROCESO 1.0 -->
  <g filter="url(#shadow)">
    <ellipse cx="400" cy="148" rx="128" ry="34" fill="#EFF6FF" stroke="#3B82F6" stroke-width="1.5"/>
  </g>
  <text x="400" y="136" text-anchor="middle" font-size="8.5" fill="#3B82F6" font-weight="600" letter-spacing="1">PROCESO 1.0</text>
  <text x="400" y="151" text-anchor="middle" font-size="12" font-weight="700" fill="#1E3A5F">Entrada de datos</text>
  <text x="400" y="165" text-anchor="middle" font-size="9" fill="#64748B">Ingesta · calibración · decodificación</text>

  <!-- PROCESO 2.0 -->
  <g filter="url(#shadow)">
    <ellipse cx="400" cy="228" rx="118" ry="32" fill="#FFF7ED" stroke="#F97316" stroke-width="1.5"/>
  </g>
  <text x="400" y="217" text-anchor="middle" font-size="8.5" fill="#F97316" font-weight="600" letter-spacing="1">PROCESO 2.0</text>
  <text x="400" y="231" text-anchor="middle" font-size="12" font-weight="700" fill="#431407">Detección</text>
  <text x="400" y="245" text-anchor="middle" font-size="9" fill="#64748B">RF-DETR (11 clases)</text>

  <!-- PROCESO 3.0 -->
  <g filter="url(#shadow)">
    <ellipse cx="400" cy="304" rx="118" ry="32" fill="#FFF7ED" stroke="#F97316" stroke-width="1.5"/>
  </g>
  <text x="400" y="293" text-anchor="middle" font-size="8.5" fill="#F97316" font-weight="600" letter-spacing="1">PROCESO 3.0</text>
  <text x="400" y="307" text-anchor="middle" font-size="12" font-weight="700" fill="#431407">Geometría de cancha</text>
  <text x="400" y="321" text-anchor="middle" font-size="9" fill="#64748B">Keypoints · homografía</text>

  <!-- PROCESO 4.0 -->
  <g filter="url(#shadow)">
    <ellipse cx="400" cy="380" rx="118" ry="32" fill="#FFF7ED" stroke="#F97316" stroke-width="1.5"/>
  </g>
  <text x="400" y="369" text-anchor="middle" font-size="8.5" fill="#F97316" font-weight="600" letter-spacing="1">PROCESO 4.0</text>
  <text x="400" y="383" text-anchor="middle" font-size="12" font-weight="700" fill="#431407">Tracking</text>
  <text x="400" y="397" text-anchor="middle" font-size="9" fill="#64748B">SAM 3 / BoT-SORT · balón</text>

  <!-- PROCESO 5.0 -->
  <g filter="url(#shadow)">
    <ellipse cx="400" cy="456" rx="118" ry="32" fill="#FFF7ED" stroke="#F97316" stroke-width="1.5"/>
  </g>
  <text x="400" y="445" text-anchor="middle" font-size="8.5" fill="#F97316" font-weight="600" letter-spacing="1">PROCESO 5.0</text>
  <text x="400" y="459" text-anchor="middle" font-size="12" font-weight="700" fill="#431407">Identidad</text>
  <text x="400" y="473" text-anchor="middle" font-size="9" fill="#64748B">SigLIP · SmolVLM2 (dorsal)</text>

  <!-- PROCESO 6.0 -->
  <g filter="url(#shadow)">
    <ellipse cx="400" cy="540" rx="130" ry="36" fill="#F5F3FF" stroke="#7C3AED" stroke-width="1.5"/>
  </g>
  <text x="400" y="527" text-anchor="middle" font-size="8.5" fill="#7C3AED" font-weight="600" letter-spacing="1">PROCESO 6.0</text>
  <text x="400" y="542" text-anchor="middle" font-size="12" font-weight="700" fill="#2E1065">Analítica en línea</text>
  <text x="400" y="557" text-anchor="middle" font-size="9" fill="#64748B">Posesión · tiros · proyección 2D · render</text>

  <!-- PROCESO 6.1 -->
  <g filter="url(#shadow)">
    <ellipse cx="400" cy="616" rx="118" ry="30" fill="#F5F3FF" stroke="#7C3AED" stroke-width="1.2" stroke-dasharray="5,3"/>
  </g>
  <text x="400" y="606" text-anchor="middle" font-size="8.5" fill="#7C3AED" font-weight="600" letter-spacing="1">PROCESO 6.1</text>
  <text x="400" y="620" text-anchor="middle" font-size="11" font-weight="700" fill="#2E1065">Post-proceso</text>
  <text x="400" y="634" text-anchor="middle" font-size="9" fill="#64748B">Pantallas · tiro 3D</text>

  <!-- D1 -->
  <rect x="195" y="668" width="410" height="40" fill="#F8FAFC" stroke="none"/>
  <line x1="195" y1="668" x2="605" y2="668" stroke="#475569" stroke-width="1.5"/>
  <line x1="195" y1="708" x2="605" y2="708" stroke="#475569" stroke-width="1.5"/>
  <rect x="195" y="669" width="38" height="38" fill="#E2E8F0"/>
  <text x="214" y="692" text-anchor="middle" font-size="10" font-weight="700" fill="#334155">D1</text>
  <text x="410" y="684" text-anchor="middle" font-size="11" font-weight="600" fill="#0F172A">Sistema de ficheros</text>
  <text x="410" y="699" text-anchor="middle" font-size="9" fill="#64748B">vídeo · metadata · tactics · shot3d</text>

  <!-- PROCESO 7.0 -->
  <g filter="url(#shadow)">
    <ellipse cx="400" cy="776" rx="128" ry="34" fill="#ECFDF5" stroke="#10B981" stroke-width="1.5"/>
  </g>
  <text x="400" y="764" text-anchor="middle" font-size="8.5" fill="#10B981" font-weight="600" letter-spacing="1">PROCESO 7.0</text>
  <text x="400" y="779" text-anchor="middle" font-size="12" font-weight="700" fill="#064E3B">Salida web</text>
  <text x="400" y="793" text-anchor="middle" font-size="9" fill="#64748B">FastAPI · Vue 3 · jobs</text>

  <!-- ═══ Cascada snowball (eje central) ═══ -->

  <!-- Entrenador → 1.0 -->
  <path d="M200,64 L310,120" fill="none" stroke="#4A5568" stroke-width="1.2" marker-end="url(#arr)"/>
  <rect x="218" y="82" width="36" height="15" rx="2" fill="#F7F8FA"/>
  <text x="236" y="93" text-anchor="middle" font-size="8.5" fill="#334155" font-weight="600">vídeo</text>

  <!-- 1.0 → 2.0 -->
  <line x1="400" y1="182" x2="400" y2="196" stroke="#4A5568" stroke-width="1.4" marker-end="url(#arr)"/>
  <rect x="468" y="184" width="44" height="15" rx="2" fill="#FFFFFF" stroke="#E2E8F0" stroke-width="0.6"/>
  <text x="490" y="195" text-anchor="middle" font-size="8.5" fill="#334155" font-weight="600">frame</text>

  <!-- 2.0 → 3.0 -->
  <line x1="400" y1="260" x2="400" y2="272" stroke="#4A5568" stroke-width="1.4" marker-end="url(#arr)"/>
  <rect x="468" y="258" width="118" height="15" rx="2" fill="#FFFFFF" stroke="#E2E8F0" stroke-width="0.6"/>
  <text x="527" y="269" text-anchor="middle" font-size="8.5" fill="#334155" font-weight="600">frame + detecciones</text>

  <!-- 3.0 → 4.0 -->
  <line x1="400" y1="336" x2="400" y2="348" stroke="#4A5568" stroke-width="1.4" marker-end="url(#arr)"/>
  <rect x="468" y="330" width="168" height="24" rx="2" fill="#FFFFFF" stroke="#E2E8F0" stroke-width="0.6"/>
  <text x="552" y="341" text-anchor="middle" font-size="8.5" fill="#334155" font-weight="600">frame + detecciones</text>
  <text x="552" y="351" text-anchor="middle" font-size="8.5" fill="#334155" font-weight="600">+ homografía</text>

  <!-- 4.0 → 5.0 -->
  <line x1="400" y1="412" x2="400" y2="424" stroke="#4A5568" stroke-width="1.4" marker-end="url(#arr)"/>
  <rect x="468" y="406" width="148" height="24" rx="2" fill="#FFFFFF" stroke="#E2E8F0" stroke-width="0.6"/>
  <text x="542" y="417" text-anchor="middle" font-size="8.5" fill="#334155" font-weight="600">frame + tracklets</text>
  <text x="542" y="427" text-anchor="middle" font-size="8.5" fill="#334155" font-weight="600">+ homografía</text>

  <!-- 5.0 → 6.0 -->
  <line x1="400" y1="488" x2="400" y2="500" stroke="#4A5568" stroke-width="1.4" marker-end="url(#arr)"/>
  <rect x="468" y="484" width="168" height="24" rx="2" fill="#FFFFFF" stroke="#E2E8F0" stroke-width="0.6"/>
  <text x="552" y="495" text-anchor="middle" font-size="8.5" fill="#334155" font-weight="600">contexto completo</text>
  <text x="552" y="505" text-anchor="middle" font-size="8" fill="#64748B">tracks · H · equipos · dorsales · balón</text>

  <!-- 6.0 → 6.1 -->
  <line x1="400" y1="576" x2="400" y2="586" stroke="#4A5568" stroke-width="1.2" marker-end="url(#arr)"/>
  <rect x="468" y="574" width="76" height="15" rx="2" fill="#FFFFFF" stroke="#E2E8F0" stroke-width="0.6"/>
  <text x="506" y="585" text-anchor="middle" font-size="8.5" fill="#334155" font-weight="600">metadata JSON</text>

  <!-- 6.0 → D1 (persistencia) -->
  <path d="M530,556 L578,556 L578,688 L605,688" fill="none" stroke="#4A5568" stroke-width="1.2" marker-end="url(#arr)"/>
  <rect x="532" y="618" width="88" height="15" rx="2" fill="#F7F8FA"/>
  <text x="576" y="629" text-anchor="middle" font-size="8.5" fill="#334155" font-weight="600">vídeo · metadata</text>

  <!-- 6.1 → D1 -->
  <line x1="400" y1="646" x2="400" y2="668" stroke="#4A5568" stroke-width="1.2" marker-end="url(#arr)"/>
  <rect x="408" y="648" width="76" height="15" rx="2" fill="#F7F8FA"/>
  <text x="446" y="659" text-anchor="middle" font-size="8.5" fill="#334155" font-weight="600">JSON táctico</text>

  <!-- 7.0 lanza pipeline -->
  <path d="M272,776 L200,776 L200,148 L280,148" fill="none" stroke="#64748B" stroke-width="1" stroke-dasharray="4,3" marker-end="url(#arr-dash)"/>
  <rect x="168" y="448" width="64" height="15" rx="2" fill="#F7F8FA"/>
  <text x="200" y="459" text-anchor="middle" font-size="8.5" fill="#64748B" font-weight="600">lanza job</text>

  <!-- 7.0 ↔ D1 -->
  <path d="M392,742 L392,712" fill="none" stroke="#4A5568" stroke-width="1.2" marker-end="url(#arr)"/>
  <rect x="318" y="718" width="52" height="15" rx="2" fill="#F7F8FA"/>
  <text x="344" y="729" text-anchor="middle" font-size="8.5" fill="#334155" font-weight="600">consulta</text>
  <path d="M408,712 L408,742" fill="none" stroke="#4A5568" stroke-width="1.2" marker-end="url(#arr)"/>
  <rect x="418" y="718" width="64" height="15" rx="2" fill="#F7F8FA"/>
  <text x="450" y="729" text-anchor="middle" font-size="8.5" fill="#334155" font-weight="600">resultados</text>

  <!-- 7.0 → Entrenador -->
  <path d="M272,776 L30,776 L30,64 L52,64" fill="none" stroke="#4A5568" stroke-width="1.2" marker-end="url(#arr)"/>
  <rect x="34" y="400" width="88" height="15" rx="2" fill="#F7F8FA"/>
  <text x="78" y="411" text-anchor="middle" font-size="8.5" fill="#334155" font-weight="600">visualización</text>

  <!-- Leyenda -->
  <rect x="0" y="882" width="800" height="38" fill="#F1F5F9"/>
  <line x1="0" y1="882" x2="800" y2="882" stroke="#E2E8F0" stroke-width="1"/>

  <rect x="24" y="893" width="16" height="12" rx="1" fill="#ffffff" stroke="#CBD5E1" stroke-width="0.8"/>
  <rect x="27" y="896" width="16" height="12" rx="1" fill="none" stroke="#CBD5E1" stroke-width="0.6"/>
  <text x="48" y="902" font-size="8.5" fill="#475569">Entidad</text>

  <ellipse cx="108" cy="900" rx="14" ry="8" fill="#EFF6FF" stroke="#3B82F6" stroke-width="1"/>
  <text x="127" y="903" font-size="8.5" fill="#475569">Proceso</text>

  <line x1="178" y1="894" x2="214" y2="894" stroke="#475569" stroke-width="1.2"/>
  <line x1="178" y1="904" x2="214" y2="904" stroke="#475569" stroke-width="1.2"/>
  <text x="220" y="903" font-size="8.5" fill="#475569">Almacén</text>

  <line x1="296" y1="900" x2="326" y2="900" stroke="#4A5568" stroke-width="1.2" marker-end="url(#arr)"/>
  <text x="332" y="903" font-size="8.5" fill="#475569">Contexto acumulativo</text>

  <line x1="460" y1="900" x2="490" y2="900" stroke="#64748B" stroke-width="1" stroke-dasharray="4,3" marker-end="url(#arr-dash)"/>
  <text x="496" y="903" font-size="8.5" fill="#475569">Orquestación</text>
</svg>
