<svg xmlns="http://www.w3.org/2000/svg" viewBox="0 0 760 420" width="760" height="420">
  <defs><style>text{font-family:-apple-system,BlinkMacSystemFont,"Segoe UI",Arial,sans-serif;}</style></defs>
  <rect width="760" height="420" fill="#ffffff"/>
  <rect x="60" y="52" width="672" height="318" fill="#FAFAFA"/>
  <text x="20" y="20" font-size="13" font-weight="700" fill="#111111">Snapshot Tracking de jugadores y balón</text>
  <text x="20" y="35" font-size="10" fill="#888888">19 mar 2026  ·  13/59 tareas (22%)  ·  WIP≤2 (programación + documentación)</text>
  <line x1="60" y1="370.0" x2="732" y2="370.0" stroke="#CBD5E1" stroke-width="1.5"/>
  <text x="54" y="374.0" font-size="10" text-anchor="end" fill="#94A3B8">0</text>
  <line x1="60" y1="318.7" x2="732" y2="318.7" stroke="#E2E8F0" stroke-width="1"/>
  <text x="54" y="322.7" font-size="10" text-anchor="end" fill="#94A3B8">10</text>
  <line x1="60" y1="267.4" x2="732" y2="267.4" stroke="#E2E8F0" stroke-width="1"/>
  <text x="54" y="271.4" font-size="10" text-anchor="end" fill="#94A3B8">20</text>
  <line x1="60" y1="216.1" x2="732" y2="216.1" stroke="#E2E8F0" stroke-width="1"/>
  <text x="54" y="220.1" font-size="10" text-anchor="end" fill="#94A3B8">30</text>
  <line x1="60" y1="164.8" x2="732" y2="164.8" stroke="#E2E8F0" stroke-width="1"/>
  <text x="54" y="168.8" font-size="10" text-anchor="end" fill="#94A3B8">40</text>
  <line x1="60" y1="113.5" x2="732" y2="113.5" stroke="#E2E8F0" stroke-width="1"/>
  <text x="54" y="117.5" font-size="10" text-anchor="end" fill="#94A3B8">50</text>
  <line x1="60" y1="62.3" x2="732" y2="62.3" stroke="#E2E8F0" stroke-width="1"/>
  <text x="54" y="66.3" font-size="10" text-anchor="end" fill="#94A3B8">60</text>
  <line x1="60" y1="52.0" x2="732" y2="52.0" stroke="#CBD5E1" stroke-width="1.5"/>
  <text x="54" y="56.0" font-size="10" text-anchor="end" fill="#94A3B8">62</text>
  <text x="16.0" y="211.0" font-size="10" fill="#64748B" text-anchor="middle" transform="rotate(-90,16.0,211.0)">Tareas acumuladas</text>
  <line x1="60.0" y1="52" x2="60.0" y2="370" stroke="#E2E8F0" stroke-width="1"/>
  <text x="60.0" y="386" font-size="11" text-anchor="middle" fill="#94A3B8">Ene</text>
  <line x1="155.4" y1="52" x2="155.4" y2="370" stroke="#E2E8F0" stroke-width="1"/>
  <text x="155.4" y="386" font-size="11" text-anchor="middle" fill="#94A3B8">Feb</text>
  <line x1="266.8" y1="52" x2="266.8" y2="370" stroke="#E2E8F0" stroke-width="1"/>
  <text x="266.8" y="386" font-size="11" text-anchor="middle" fill="#94A3B8">Mar</text>
  <line x1="390.0" y1="52" x2="390.0" y2="370" stroke="#E2E8F0" stroke-width="1"/>
  <text x="390.0" y="386" font-size="11" text-anchor="middle" fill="#94A3B8">Abr</text>
  <line x1="509.3" y1="52" x2="509.3" y2="370" stroke="#E2E8F0" stroke-width="1"/>
  <text x="509.3" y="386" font-size="11" text-anchor="middle" fill="#94A3B8">May</text>
  <line x1="632.6" y1="52" x2="632.6" y2="370" stroke="#E2E8F0" stroke-width="1"/>
  <text x="632.6" y="386" font-size="11" text-anchor="middle" fill="#94A3B8">Jun</text>
  <rect x="338.3" y="52" width="393.7" height="318" fill="#94A3B8" opacity="0.12"/>
  <line x1="338.3" y1="67.4" x2="732.0" y2="67.4" stroke="#DC2626" stroke-width="1" stroke-dasharray="4,3" opacity="0.4"/>
  <polygon points="60.0,98.2 87.8,98.2 99.8,98.2 143.5,98.2 159.4,98.2 163.4,98.2 195.2,87.9 231.0,87.9 238.9,87.9 254.8,87.9 266.8,77.6 282.7,77.6 310.5,77.6 318.5,77.6 338.3,67.4 338.3,293.1 318.5,298.2 310.5,303.3 282.7,308.5 266.8,313.6 254.8,313.6 238.9,318.7 231.0,323.8 195.2,329.0 163.4,334.1 159.4,339.2 143.5,344.4 99.8,349.5 87.8,354.6 60.0,370.0" fill="#FECACA" opacity="0.75"/>
  <polygon points="60.0,370.0 87.8,354.6 99.8,349.5 143.5,344.4 159.4,339.2 163.4,334.1 195.2,329.0 231.0,323.8 238.9,318.7 254.8,313.6 266.8,313.6 282.7,308.5 310.5,303.3 318.5,298.2 338.3,293.1 338.3,303.3 318.5,308.5 310.5,313.6 282.7,318.7 266.8,323.8 254.8,323.8 238.9,329.0 231.0,334.1 195.2,339.2 163.4,344.4 159.4,349.5 143.5,354.6 99.8,359.7 87.8,364.9 60.0,370.0"  fill="#FDE68A" opacity="0.85"/>
  <polygon points="60.0,370.0 87.8,364.9 99.8,359.7 143.5,354.6 159.4,349.5 163.4,344.4 195.2,339.2 231.0,334.1 238.9,329.0 254.8,323.8 266.8,323.8 282.7,318.7 310.5,313.6 318.5,308.5 338.3,303.3 338.3,349.5 318.5,349.5 310.5,354.6 282.7,354.6 266.8,354.6 254.8,354.6 238.9,354.6 231.0,359.7 195.2,359.7 163.4,359.7 159.4,359.7 143.5,364.9 99.8,364.9 87.8,370.0 60.0,370.0" fill="#BBF7D0" opacity="0.90"/>
  <polygon points="60.0,370.0 87.8,370.0 99.8,364.9 143.5,364.9 159.4,359.7 163.4,359.7 195.2,359.7 231.0,359.7 238.9,354.6 254.8,354.6 266.8,354.6 282.7,354.6 310.5,354.6 318.5,349.5 338.3,349.5 338.3,370.0 318.5,370.0 310.5,370.0 282.7,370.0 266.8,370.0 254.8,370.0 238.9,370.0 231.0,370.0 195.2,370.0 163.4,370.0 159.4,370.0 143.5,370.0 99.8,370.0 87.8,370.0 60.0,370.0" fill="#99F6E4" opacity="0.95"/>
  <polyline points="60.0,98.2 87.8,98.2 99.8,98.2 143.5,98.2 159.4,98.2 163.4,98.2 195.2,87.9 231.0,87.9 238.9,87.9 254.8,87.9 266.8,77.6 282.7,77.6 310.5,77.6 318.5,77.6 338.3,67.4"   fill="none" stroke="#DC2626" stroke-width="1"   stroke-linejoin="round" stroke-dasharray="4,3"/>
  <polyline points="60.0,370.0 87.8,354.6 99.8,349.5 143.5,344.4 159.4,339.2 163.4,334.1 195.2,329.0 231.0,323.8 238.9,318.7 254.8,313.6 266.8,313.6 282.7,308.5 310.5,303.3 318.5,298.2 338.3,293.1"  fill="none" stroke="#CA8A04" stroke-width="1"   stroke-linejoin="round"/>
  <polyline points="60.0,370.0 87.8,364.9 99.8,359.7 143.5,354.6 159.4,349.5 163.4,344.4 195.2,339.2 231.0,334.1 238.9,329.0 254.8,323.8 266.8,323.8 282.7,318.7 310.5,313.6 318.5,308.5 338.3,303.3"    fill="none" stroke="#16A34A" stroke-width="1.5" stroke-linejoin="round"/>
  <polyline points="60.0,370.0 87.8,370.0 99.8,364.9 143.5,364.9 159.4,359.7 163.4,359.7 195.2,359.7 231.0,359.7 238.9,354.6 254.8,354.6 266.8,354.6 282.7,354.6 310.5,354.6 318.5,349.5 338.3,349.5" fill="none" stroke="#0D9488" stroke-width="1.2" stroke-linejoin="round"/>
  <line x1="195.2" y1="87.9" x2="195.2" y2="69.9" stroke="#818CF8" stroke-width="1" stroke-dasharray="2,2"/>
  <text x="198.2" y="70.9" font-size="8" fill="#6366F1">+2 mejoras técnicas</text>
  <polygon points="195.2,85.90322580645164 192.2,80.90322580645164 198.2,80.90322580645164" fill="#6366F1"/>
  <line x1="266.8" y1="77.6" x2="266.8" y2="59.6" stroke="#818CF8" stroke-width="1" stroke-dasharray="2,2"/>
  <text x="269.8" y="60.6" font-size="8" fill="#6366F1">+2 mejoras técnicas</text>
  <polygon points="266.8,75.64516129032262 263.8,70.64516129032262 269.8,70.64516129032262" fill="#6366F1"/>
  <line x1="338.3" y1="67.4" x2="338.3" y2="49.4" stroke="#818CF8" stroke-width="1" stroke-dasharray="2,2"/>
  <text x="341.3" y="50.4" font-size="8" fill="#6366F1">+2 mejoras técnicas</text>
  <polygon points="338.3,65.38709677419354 335.3,60.38709677419354 341.3,60.38709677419354" fill="#6366F1"/>
  <rect x="60" y="52" width="672" height="318" fill="none" stroke="#CBD5E1" stroke-width="1"/>
  <line x1="728.0" y1="52" x2="728.0" y2="370" stroke="#EF4444" stroke-width="1.5" stroke-dasharray="5,4"/>
  <text x="724.0" y="64" font-size="9" text-anchor="end" fill="#EF4444" font-weight="600">Entrega</text>
  <line x1="338.3" y1="52" x2="338.3" y2="370" stroke="#0F172A" stroke-width="2"/>
  <rect x="325.3" y="66" width="26" height="13" fill="#ffffff" rx="2"/>
  <text x="338.3" y="76" font-size="9" text-anchor="middle" fill="#0F172A" font-weight="700">hoy</text>
  <rect x="60" y="391" width="14" height="10" fill="#BBF7D0" stroke="#16A34A" stroke-width="1" rx="2"/>
  <text x="79" y="400" font-size="10" fill="#555555">Hecho · programación</text>
  <rect x="210.0" y="391" width="14" height="10" fill="#99F6E4" stroke="#0D9488" stroke-width="1" rx="2"/>
  <text x="229.0" y="400" font-size="10" fill="#555555">Hecho · documentación</text>
  <rect x="366.0" y="391" width="14" height="10" fill="#FDE68A" stroke="#CA8A04" stroke-width="1" rx="2"/>
  <text x="385.0" y="400" font-size="10" fill="#555555">En progreso (WIP≤2)</text>
  <rect x="510.0" y="391" width="14" height="10" fill="#FECACA" stroke="#DC2626" stroke-width="1" rx="2"/>
  <text x="529.0" y="400" font-size="10" fill="#555555">Por hacer / diferido</text>
  <rect x="660.0" y="391" width="14" height="10" fill="#E0E7FF" stroke="#6366F1" stroke-width="1" rx="2"/>
  <text x="679.0" y="400" font-size="10" fill="#555555">Scope discovery</text>
</svg>