<svg xmlns="http://www.w3.org/2000/svg" viewBox="0 0 760 440" width="760" height="440">
  <defs><style>text{font-family:-apple-system,BlinkMacSystemFont,"Segoe UI",Arial,sans-serif;}</style></defs>
  <rect width="760" height="440" fill="#ffffff"/>
  <rect x="60" y="52" width="672" height="318" fill="#FAFAFA"/>
  <text x="20" y="20" font-size="13" font-weight="700" fill="#111111">Snapshot · Pipeline ejecutable de extremo a extremo</text>
  <text x="20" y="35" font-size="10" fill="#888888">30 abr 2026  ·  24/55 tarjetas (44%)  ·  Kanban WIP=1</text>
  <line x1="60" y1="370.0" x2="732" y2="370.0" stroke="#CBD5E1" stroke-width="1.5"/>
  <text x="54" y="374.0" font-size="10" text-anchor="end" fill="#94A3B8">0</text>
  <line x1="60" y1="324.6" x2="732" y2="324.6" stroke="#E2E8F0" stroke-width="1"/>
  <text x="54" y="328.6" font-size="10" text-anchor="end" fill="#94A3B8">10</text>
  <line x1="60" y1="279.1" x2="732" y2="279.1" stroke="#E2E8F0" stroke-width="1"/>
  <text x="54" y="283.1" font-size="10" text-anchor="end" fill="#94A3B8">20</text>
  <line x1="60" y1="233.7" x2="732" y2="233.7" stroke="#E2E8F0" stroke-width="1"/>
  <text x="54" y="237.7" font-size="10" text-anchor="end" fill="#94A3B8">30</text>
  <line x1="60" y1="188.3" x2="732" y2="188.3" stroke="#E2E8F0" stroke-width="1"/>
  <text x="54" y="192.3" font-size="10" text-anchor="end" fill="#94A3B8">40</text>
  <line x1="60" y1="142.9" x2="732" y2="142.9" stroke="#E2E8F0" stroke-width="1"/>
  <text x="54" y="146.9" font-size="10" text-anchor="end" fill="#94A3B8">50</text>
  <line x1="60" y1="97.4" x2="732" y2="97.4" stroke="#E2E8F0" stroke-width="1"/>
  <text x="54" y="101.4" font-size="10" text-anchor="end" fill="#94A3B8">60</text>
  <line x1="60" y1="52.0" x2="732" y2="52.0" stroke="#CBD5E1" stroke-width="1.5"/>
  <text x="54" y="56.0" font-size="10" text-anchor="end" fill="#94A3B8">70</text>
  <text x="16.0" y="211.0" font-size="10" fill="#64748B" text-anchor="middle" transform="rotate(-90,16.0,211.0)">Tarjetas acumuladas</text>
  <line x1="60.0" y1="52" x2="60.0" y2="370" stroke="#E2E8F0" stroke-width="1"/>
  <text x="60.0" y="386" font-size="11" text-anchor="middle" fill="#94A3B8">Ene</text>
  <line x1="157.7" y1="52" x2="157.7" y2="370" stroke="#E2E8F0" stroke-width="1"/>
  <text x="157.7" y="386" font-size="11" text-anchor="middle" fill="#94A3B8">Feb</text>
  <line x1="271.8" y1="52" x2="271.8" y2="370" stroke="#E2E8F0" stroke-width="1"/>
  <text x="271.8" y="386" font-size="11" text-anchor="middle" fill="#94A3B8">Mar</text>
  <line x1="398.0" y1="52" x2="398.0" y2="370" stroke="#E2E8F0" stroke-width="1"/>
  <text x="398.0" y="386" font-size="11" text-anchor="middle" fill="#94A3B8">Abr</text>
  <line x1="520.2" y1="52" x2="520.2" y2="370" stroke="#E2E8F0" stroke-width="1"/>
  <text x="520.2" y="386" font-size="11" text-anchor="middle" fill="#94A3B8">May</text>
  <line x1="646.5" y1="52" x2="646.5" y2="370" stroke="#E2E8F0" stroke-width="1"/>
  <text x="646.5" y="386" font-size="11" text-anchor="middle" fill="#94A3B8">Jun</text>
  <rect x="516.1" y="52" width="215.9" height="318" fill="#94A3B8" opacity="0.12"/>
  <polygon points="60.0,120.1 80.4,120.1 100.7,120.1 117.0,120.1 137.4,120.1 198.5,120.1 227.0,120.1 235.1,120.1 259.6,120.1 288.1,120.1 316.6,120.1 332.9,120.1 345.1,120.1 373.6,120.1 402.1,120.1 422.5,120.1 430.6,120.1 451.0,120.1 459.1,120.1 463.2,120.1 479.5,120.1 487.6,120.1 508.0,120.1 516.1,120.1 516.1,256.4 508.0,261.0 487.6,265.5 479.5,270.1 463.2,274.6 459.1,279.1 451.0,283.7 430.6,288.2 422.5,292.8 402.1,297.3 373.6,301.9 345.1,306.4 332.9,310.9 316.6,315.5 288.1,320.0 259.6,324.6 235.1,329.1 227.0,333.7 198.5,338.2 137.4,342.7 117.0,347.3 100.7,351.8 80.4,356.4 60.0,365.5" fill="#FECACA" opacity="0.75"/>
  <polygon points="60.0,365.5 80.4,356.4 100.7,351.8 117.0,347.3 137.4,342.7 198.5,338.2 227.0,333.7 235.1,329.1 259.6,324.6 288.1,320.0 316.6,315.5 332.9,310.9 345.1,306.4 373.6,301.9 402.1,297.3 422.5,292.8 430.6,288.2 451.0,283.7 459.1,279.1 463.2,274.6 479.5,270.1 487.6,265.5 508.0,261.0 516.1,256.4 516.1,261.0 508.0,265.5 487.6,270.1 479.5,274.6 463.2,279.1 459.1,283.7 451.0,288.2 430.6,292.8 422.5,297.3 402.1,301.9 373.6,306.4 345.1,310.9 332.9,315.5 316.6,320.0 288.1,324.6 259.6,329.1 235.1,333.7 227.0,338.2 198.5,342.7 137.4,347.3 117.0,351.8 100.7,356.4 80.4,360.9 60.0,365.5"  fill="#FDE68A" opacity="0.85"/>
  <polygon points="60.0,365.5 80.4,360.9 100.7,356.4 117.0,351.8 137.4,347.3 198.5,342.7 227.0,338.2 235.1,333.7 259.6,329.1 288.1,324.6 316.6,320.0 332.9,315.5 345.1,310.9 373.6,306.4 402.1,301.9 422.5,297.3 430.6,292.8 451.0,288.2 459.1,283.7 463.2,279.1 479.5,274.6 487.6,270.1 508.0,265.5 516.1,261.0 516.1,370.0 508.0,370.0 487.6,370.0 479.5,370.0 463.2,370.0 459.1,370.0 451.0,370.0 430.6,370.0 422.5,370.0 402.1,370.0 373.6,370.0 345.1,370.0 332.9,370.0 316.6,370.0 288.1,370.0 259.6,370.0 235.1,370.0 227.0,370.0 198.5,370.0 137.4,370.0 117.0,370.0 100.7,370.0 80.4,370.0 60.0,370.0" fill="#BBF7D0" opacity="0.92"/>
  <polyline points="60.0,120.1 80.4,120.1 100.7,120.1 117.0,120.1 137.4,120.1 198.5,120.1 227.0,120.1 235.1,120.1 259.6,120.1 288.1,120.1 316.6,120.1 332.9,120.1 345.1,120.1 373.6,120.1 402.1,120.1 422.5,120.1 430.6,120.1 451.0,120.1 459.1,120.1 463.2,120.1 479.5,120.1 487.6,120.1 508.0,120.1 516.1,120.1" fill="none" stroke="#DC2626" stroke-width="1" stroke-linejoin="round" stroke-dasharray="4,3"/>
  <polyline points="60.0,365.5 80.4,360.9 100.7,356.4 117.0,351.8 137.4,347.3 198.5,342.7 227.0,338.2 235.1,333.7 259.6,329.1 288.1,324.6 316.6,320.0 332.9,315.5 345.1,310.9 373.6,306.4 402.1,301.9 422.5,297.3 430.6,292.8 451.0,288.2 459.1,283.7 463.2,279.1 479.5,274.6 487.6,270.1 508.0,265.5 516.1,261.0"  fill="none" stroke="#16A34A" stroke-width="1.6" stroke-linejoin="round"/>
  <rect x="60" y="52" width="672" height="318" fill="none" stroke="#CBD5E1" stroke-width="1"/>
  <line x1="589.5" y1="52" x2="589.5" y2="370" stroke="#F59E0B" stroke-width="1.3" stroke-dasharray="5,4"/>
  <text x="585.5" y="64" font-size="9" text-anchor="end" fill="#B45309" font-weight="600">Entrega ordinaria</text>
  <line x1="732.0" y1="52" x2="732.0" y2="370" stroke="#EF4444" stroke-width="1.5" stroke-dasharray="5,4"/>
  <text x="728.0" y="64" font-size="9" text-anchor="end" fill="#EF4444" font-weight="600">Entrega final</text>
  <line x1="516.1" y1="52" x2="516.1" y2="370" stroke="#0F172A" stroke-width="2"/>
  <rect x="503.1" y="66" width="26" height="13" fill="#ffffff" rx="2"/>
  <text x="516.1" y="76" font-size="9" text-anchor="middle" fill="#0F172A" font-weight="700">hoy</text>
  <rect x="60" y="389" width="14" height="10" fill="#BBF7D0" stroke="#16A34A" stroke-width="1" rx="2"/>
  <text x="79" y="398" font-size="10" fill="#555555">Hecho</text>
  <rect x="293" y="389" width="14" height="10" fill="#FDE68A" stroke="#CA8A04" stroke-width="1" rx="2"/>
  <text x="312" y="398" font-size="10" fill="#555555">En progreso (WIP=1)</text>
  <rect x="526" y="389" width="14" height="10" fill="#FECACA" stroke="#DC2626" stroke-width="1" rx="2"/>
  <text x="545" y="398" font-size="10" fill="#555555">Por hacer / diferido</text>
</svg>