<svg xmlns="http://www.w3.org/2000/svg" viewBox="0 0 760 420" width="760" height="420">
  <defs><style>text{font-family:-apple-system,BlinkMacSystemFont,"Segoe UI",Arial,sans-serif;}</style></defs>
  <rect width="760" height="420" fill="#ffffff"/>
  <rect x="60" y="52" width="672" height="318" fill="#FAFAFA"/>
  <text x="20" y="20" font-size="13" font-weight="700" fill="#111111">Snapshot Tracking de jugadores y balón</text>
  <text x="20" y="35" font-size="10" fill="#888888">19 mar 2026  ·  14/52 tareas (27%)  ·  Kanban WIP=1</text>
  <line x1="60" y1="370.0" x2="732" y2="370.0" stroke="#CBD5E1" stroke-width="1.5"/>
  <text x="54" y="374.0" font-size="10" text-anchor="end" fill="#94A3B8">0</text>
  <line x1="60" y1="312.2" x2="732" y2="312.2" stroke="#E2E8F0" stroke-width="1"/>
  <text x="54" y="316.2" font-size="10" text-anchor="end" fill="#94A3B8">10</text>
  <line x1="60" y1="254.4" x2="732" y2="254.4" stroke="#E2E8F0" stroke-width="1"/>
  <text x="54" y="258.4" font-size="10" text-anchor="end" fill="#94A3B8">20</text>
  <line x1="60" y1="196.5" x2="732" y2="196.5" stroke="#E2E8F0" stroke-width="1"/>
  <text x="54" y="200.5" font-size="10" text-anchor="end" fill="#94A3B8">30</text>
  <line x1="60" y1="138.7" x2="732" y2="138.7" stroke="#E2E8F0" stroke-width="1"/>
  <text x="54" y="142.7" font-size="10" text-anchor="end" fill="#94A3B8">40</text>
  <line x1="60" y1="80.9" x2="732" y2="80.9" stroke="#E2E8F0" stroke-width="1"/>
  <text x="54" y="84.9" font-size="10" text-anchor="end" fill="#94A3B8">50</text>
  <text x="16.0" y="211.0" font-size="10" fill="#64748B" text-anchor="middle" transform="rotate(-90,16.0,211.0)">Tareas acumuladas</text>
  <line x1="60.0" y1="52" x2="60.0" y2="370" stroke="#E2E8F0" stroke-width="1"/>
  <text x="60.0" y="386" font-size="11" text-anchor="middle" fill="#94A3B8">Ene</text>
  <line x1="155.4" y1="52" x2="155.4" y2="370" stroke="#E2E8F0" stroke-width="1"/>
  <text x="155.4" y="386" font-size="11" text-anchor="middle" fill="#94A3B8">Feb</text>
  <line x1="266.8" y1="52" x2="266.8" y2="370" stroke="#E2E8F0" stroke-width="1"/>
  <text x="266.8" y="386" font-size="11" text-anchor="middle" fill="#94A3B8">Mar</text>
  <line x1="390.0" y1="52" x2="390.0" y2="370" stroke="#E2E8F0" stroke-width="1"/>
  <text x="390.0" y="386" font-size="11" text-anchor="middle" fill="#94A3B8">Abr</text>
  <line x1="509.3" y1="52" x2="509.3" y2="370" stroke="#E2E8F0" stroke-width="1"/>
  <text x="509.3" y="386" font-size="11" text-anchor="middle" fill="#94A3B8">May</text>
  <line x1="632.6" y1="52" x2="632.6" y2="370" stroke="#E2E8F0" stroke-width="1"/>
  <text x="632.6" y="386" font-size="11" text-anchor="middle" fill="#94A3B8">Jun</text>
  <rect x="338.3" y="52" width="393.7" height="318" fill="#94A3B8" opacity="0.12"/>
  <line x1="338.3" y1="69.3" x2="732.0" y2="69.3" stroke="#DC2626" stroke-width="1" stroke-dasharray="4,3" opacity="0.4"/>
  <polygon points="60.0,104.0 60.0,104.0 87.8,104.0 143.5,104.0 163.4,104.0 195.2,92.5 223.0,92.5 231.0,92.5 254.8,92.5 266.8,80.9 282.7,80.9 310.5,80.9 326.4,80.9 338.3,69.3 338.3,283.3 326.4,289.1 310.5,294.8 282.7,300.6 266.8,306.4 254.8,306.4 231.0,318.0 223.0,323.7 195.2,329.5 163.4,341.1 143.5,346.9 87.8,352.7 60.0,358.4 60.0,364.2"   fill="#FECACA" opacity="0.75"/>
  <polygon points="60.0,364.2 60.0,358.4 87.8,352.7 143.5,346.9 163.4,341.1 195.2,329.5 223.0,323.7 231.0,318.0 254.8,306.4 266.8,306.4 282.7,300.6 310.5,294.8 326.4,289.1 338.3,283.3 338.3,289.1 326.4,294.8 310.5,300.6 282.7,306.4 266.8,312.2 254.8,312.2 231.0,323.7 223.0,329.5 195.2,335.3 163.4,346.9 143.5,352.7 87.8,358.4 60.0,364.2 60.0,370.0" fill="#FDE68A" opacity="0.85"/>
  <polygon points="60.0,370.0 60.0,364.2 87.8,358.4 143.5,352.7 163.4,346.9 195.2,335.3 223.0,329.5 231.0,323.7 254.8,312.2 266.8,312.2 282.7,306.4 310.5,300.6 326.4,294.8 338.3,289.1 338.3,370.0 326.4,370.0 310.5,370.0 282.7,370.0 266.8,370.0 254.8,370.0 231.0,370.0 223.0,370.0 195.2,370.0 163.4,370.0 143.5,370.0 87.8,370.0 60.0,370.0 60.0,370.0"  fill="#BBF7D0" opacity="0.90"/>
  <polyline points="60.0,370.0 60.0,364.2 87.8,358.4 143.5,352.7 163.4,346.9 195.2,335.3 223.0,329.5 231.0,323.7 254.8,312.2 266.8,312.2 282.7,306.4 310.5,300.6 326.4,294.8 338.3,289.1" fill="none" stroke="#16A34A" stroke-width="1.5" stroke-linejoin="round"/>
  <polyline points="60.0,364.2 60.0,358.4 87.8,352.7 143.5,346.9 163.4,341.1 195.2,329.5 223.0,323.7 231.0,318.0 254.8,306.4 266.8,306.4 282.7,300.6 310.5,294.8 326.4,289.1 338.3,283.3"   fill="none" stroke="#CA8A04" stroke-width="1"   stroke-linejoin="round"/>
  <polyline points="60.0,104.0 60.0,104.0 87.8,104.0 143.5,104.0 163.4,104.0 195.2,92.5 223.0,92.5 231.0,92.5 254.8,92.5 266.8,80.9 282.7,80.9 310.5,80.9 326.4,80.9 338.3,69.3" fill="none" stroke="#DC2626" stroke-width="1"   stroke-linejoin="round" stroke-dasharray="4,3"/>
  <line x1="195.2" y1="92.5" x2="195.2" y2="74.5" stroke="#818CF8" stroke-width="1" stroke-dasharray="2,2"/>
  <text x="198.2" y="75.5" font-size="8" fill="#6366F1">+2 mejoras técnicas</text>
  <polygon points="195.2,90.4727272727273 192.2,85.4727272727273 198.2,85.4727272727273" fill="#6366F1"/>
  <line x1="266.8" y1="80.9" x2="266.8" y2="62.9" stroke="#818CF8" stroke-width="1" stroke-dasharray="2,2"/>
  <text x="269.8" y="63.9" font-size="8" fill="#6366F1">+2 mejoras técnicas</text>
  <polygon points="266.8,78.90909090909093 263.8,73.90909090909093 269.8,73.90909090909093" fill="#6366F1"/>
  <line x1="338.3" y1="69.3" x2="338.3" y2="51.3" stroke="#818CF8" stroke-width="1" stroke-dasharray="2,2"/>
  <text x="341.3" y="52.3" font-size="8" fill="#6366F1">+2 mejoras técnicas</text>
  <polygon points="338.3,67.34545454545457 335.3,62.34545454545457 341.3,62.34545454545457" fill="#6366F1"/>
  <rect x="60" y="52" width="672" height="318" fill="none" stroke="#CBD5E1" stroke-width="1"/>
  <line x1="728.0" y1="52" x2="728.0" y2="370" stroke="#EF4444" stroke-width="1.5" stroke-dasharray="5,4"/>
  <text x="724.0" y="64" font-size="9" text-anchor="end" fill="#EF4444" font-weight="600">Entrega</text>
  <line x1="338.3" y1="52" x2="338.3" y2="370" stroke="#0F172A" stroke-width="2"/>
  <rect x="325.3" y="66" width="26" height="13" fill="#ffffff" rx="2"/>
  <text x="338.3" y="76" font-size="9" text-anchor="middle" fill="#0F172A" font-weight="700">hoy</text>
  <rect x="60" y="391" width="14" height="10" fill="#BBF7D0" stroke="#16A34A" stroke-width="1" rx="2"/>
  <text x="79" y="400" font-size="10" fill="#555555">Hecho</text>
  <rect x="125.0" y="391" width="14" height="10" fill="#FDE68A" stroke="#CA8A04" stroke-width="1" rx="2"/>
  <text x="144.0" y="400" font-size="10" fill="#555555">En progreso (WIP=1)</text>
  <rect x="276.8" y="391" width="14" height="10" fill="#FECACA" stroke="#DC2626" stroke-width="1" rx="2"/>
  <text x="295.8" y="400" font-size="10" fill="#555555">Por hacer / diferido</text>
  <rect x="434.8" y="391" width="14" height="10" fill="#E0E7FF" stroke="#6366F1" stroke-width="1" rx="2"/>
  <text x="453.8" y="400" font-size="10" fill="#555555">Scope discovery</text>
</svg>