<svg viewBox="0 0 1280 660" xmlns="http://www.w3.org/2000/svg" font-family="'Segoe UI',Helvetica,Arial,sans-serif">
<rect width="1280" height="660" fill="#0b1220"/>
<defs><filter id="glow" x="-50%" y="-50%" width="200%" height="200%"><feGaussianBlur stdDeviation="2.5" result="b"/><feMerge><feMergeNode in="b"/><feMergeNode in="SourceGraphic"/></feMerge></filter><marker id="arrow" markerWidth="10" markerHeight="10" refX="7" refY="3" orient="auto"><path d="M0,0 L7,3 L0,6 Z" fill="#5ad1c8"/></marker><linearGradient id="hgrad" x1="0" y1="0" x2="1" y2="1"><stop offset="0" stop-color="#5ad1c8"/><stop offset="1" stop-color="#7c9cff"/></linearGradient></defs>
<text x="640.0" y="52" text-anchor="middle" fill="#e6edf6" font-size="30" font-weight="700">Homograf&#237;a: del plano de c&#225;mara al plano cenital</text>
<text x="640.0" y="80" text-anchor="middle" fill="#8aa0c0" font-size="15">x&#39; = H&#183;x &#8212; los 33 keypoints NBA del modelo enlazan ambos planos (RANSAC sobre pares imagen&#8596;cancha)</text>
<rect x="48" y="120" width="480" height="380" rx="12" fill="#111c33" stroke="#24344f" stroke-width="1.5"/>
<text x="64" y="94" fill="#e6edf6" font-size="18" font-weight="600">Plano de cámara</text>
<text x="64" y="112" fill="#8aa0c0" font-size="13">fotograma de vídeo · banda elevada (perspectiva)</text>
<rect x="752" y="120" width="480" height="380" rx="12" fill="#111c33" stroke="#24344f" stroke-width="1.5"/>
<text x="768" y="94" fill="#e6edf6" font-size="18" font-weight="600">Plano cenital</text>
<text x="768" y="112" fill="#8aa0c0" font-size="13">cancha 2D · coordenadas reales (pies)</text>
<clipPath id="clipL"><rect x="48" y="120" width="480" height="380" rx="12"/></clipPath><clipPath id="clipR"><rect x="752" y="120" width="480" height="380" rx="12"/></clipPath>
<g clip-path="url(#clipL)"><line x1="74.0" y1="377.0" x2="83.7" y2="363.3" stroke="#3a567f" stroke-width="2.0" opacity="0.85"/><line x1="83.7" y1="363.3" x2="119.4" y2="312.7" stroke="#3a567f" stroke-width="2.0" opacity="0.85"/><line x1="119.4" y1="312.7" x2="147.5" y2="272.9" stroke="#3a567f" stroke-width="2.0" opacity="0.85"/><line x1="147.5" y1="272.9" x2="165.4" y2="247.6" stroke="#3a567f" stroke-width="2.0" opacity="0.85"/><line x1="165.4" y1="247.6" x2="168.6" y2="243.0" stroke="#3a567f" stroke-width="2.0" opacity="0.85"/><line x1="74.0" y1="377.0" x2="198.7" y2="377.0" stroke="#3a567f" stroke-width="2.0" opacity="0.85"/><line x1="198.7" y1="377.0" x2="287.9" y2="377.0" stroke="#3a567f" stroke-width="2.0" opacity="0.85"/><line x1="287.9" y1="377.0" x2="377.3" y2="377.0" stroke="#3a567f" stroke-width="2.0" opacity="0.85"/><line x1="377.3" y1="377.0" x2="502.0" y2="377.0" stroke="#3a567f" stroke-width="2.0" opacity="0.85"/><line x1="168.6" y1="243.0" x2="238.2" y2="243.0" stroke="#3a567f" stroke-width="2.0" opacity="0.85"/><line x1="238.2" y1="243.0" x2="288.0" y2="243.0" stroke="#3a567f" stroke-width="2.0" opacity="0.85"/><line x1="288.0" y1="243.0" x2="337.8" y2="243.0" stroke="#3a567f" stroke-width="2.0" opacity="0.85"/><line x1="337.8" y1="243.0" x2="407.4" y2="243.0" stroke="#3a567f" stroke-width="2.0" opacity="0.85"/><line x1="287.9" y1="377.0" x2="288.0" y2="243.0" stroke="#3a567f" stroke-width="2.0" opacity="0.85"/><line x1="119.4" y1="312.7" x2="187.6" y2="312.7" stroke="#3a567f" stroke-width="2.0" opacity="0.85"/><line x1="187.6" y1="312.7" x2="204.3" y2="272.9" stroke="#3a567f" stroke-width="2.0" opacity="0.85"/><line x1="204.3" y1="272.9" x2="147.5" y2="272.9" stroke="#3a567f" stroke-width="2.0" opacity="0.85"/><line x1="456.6" y1="312.7" x2="388.4" y2="312.7" stroke="#3a567f" stroke-width="2.0" opacity="0.85"/><line x1="388.4" y1="312.7" x2="371.7" y2="272.9" stroke="#3a567f" stroke-width="2.0" opacity="0.85"/><line x1="371.7" y1="272.9" x2="428.5" y2="272.9" stroke="#3a567f" stroke-width="2.0" opacity="0.85"/><line x1="83.7" y1="363.3" x2="144.1" y2="363.3" stroke="#3a567f" stroke-width="2.0" opacity="0.85"/><line x1="165.4" y1="247.6" x2="201.7" y2="247.6" stroke="#3a567f" stroke-width="2.0" opacity="0.85"/><line x1="492.3" y1="363.3" x2="431.9" y2="363.3" stroke="#3a567f" stroke-width="2.0" opacity="0.85"/><line x1="410.6" y1="247.6" x2="374.3" y2="247.6" stroke="#3a567f" stroke-width="2.0" opacity="0.85"/><line x1="502.0" y1="377.0" x2="492.3" y2="363.3" stroke="#3a567f" stroke-width="2.0" opacity="0.85"/><line x1="492.3" y1="363.3" x2="456.6" y2="312.7" stroke="#3a567f" stroke-width="2.0" opacity="0.85"/><line x1="456.6" y1="312.7" x2="428.5" y2="272.9" stroke="#3a567f" stroke-width="2.0" opacity="0.85"/><line x1="428.5" y1="272.9" x2="410.6" y2="247.6" stroke="#3a567f" stroke-width="2.0" opacity="0.85"/><line x1="410.6" y1="247.6" x2="407.4" y2="243.0" stroke="#3a567f" stroke-width="2.0" opacity="0.85"/><line x1="187.6" y1="312.7" x2="196.7" y2="291.0" stroke="#3a567f" stroke-width="2.0" opacity="0.85"/><line x1="196.7" y1="291.0" x2="204.3" y2="272.9" stroke="#3a567f" stroke-width="2.0" opacity="0.85"/><line x1="388.4" y1="312.7" x2="379.3" y2="291.0" stroke="#3a567f" stroke-width="2.0" opacity="0.85"/><line x1="379.3" y1="291.0" x2="371.7" y2="272.9" stroke="#3a567f" stroke-width="2.0" opacity="0.85"/><polyline points="307.6,291.0 307.2,289.1 306.6,287.2 305.6,285.5 304.4,283.8 302.9,282.3 301.2,281.0 299.3,279.9 297.2,278.9 295.0,278.1 292.8,277.6 290.4,277.3 288.0,277.1 285.6,277.3 283.2,277.6 281.0,278.1 278.8,278.9 276.7,279.9 274.8,281.0 273.1,282.3 271.6,283.8 270.4,285.5 269.4,287.2 268.8,289.1 268.4,291.0 268.4,292.9 268.7,294.9 269.4,296.8 270.4,298.6 271.8,300.4 273.5,302.0 275.4,303.4 277.6,304.6 280.0,305.6 282.6,306.3 285.3,306.7 288.0,306.9 290.7,306.7 293.4,306.3 296.0,305.6 298.4,304.6 300.6,303.4 302.5,302.0 304.2,300.4 305.6,298.6 306.6,296.8 307.3,294.9 307.6,292.9 307.6,291.0" fill="none" stroke="#3a567f" stroke-width="2.0" stroke-linejoin="round" stroke-linecap="round" opacity="0.85"/><polyline points="216.3,291.0 216.7,289.1 216.8,287.2 216.6,285.5 216.1,283.8 215.2,282.3 214.1,281.0 212.7,279.9 211.0,278.9 209.1,278.1 207.1,277.6 204.9,277.3 202.5,277.1 200.1,277.3 197.6,277.6 195.0,278.1 192.5,278.9 190.1,279.9 187.7,281.0 185.4,282.3 183.3,283.8 181.4,285.5 179.7,287.2 178.2,289.1 177.1,291.0 176.3,292.9 175.8,294.9 175.7,296.8 175.9,298.6 176.5,300.4 177.5,302.0 178.9,303.4 180.5,304.6 182.5,305.6 184.8,306.3 187.3,306.7 190.0,306.9 192.8,306.7 195.7,306.3 198.5,305.6 201.4,304.6 204.1,303.4 206.6,302.0 208.9,300.4 211.0,298.6 212.8,296.8 214.3,294.9 215.4,292.9 216.3,291.0" fill="none" stroke="#3a567f" stroke-width="2.0" stroke-linejoin="round" stroke-linecap="round" opacity="0.85"/><polyline points="398.9,291.0 397.8,289.1 396.3,287.2 394.6,285.5 392.7,283.8 390.6,282.3 388.3,281.0 385.9,279.9 383.5,278.9 381.0,278.1 378.4,277.6 375.9,277.3 373.5,277.1 371.1,277.3 368.9,277.6 366.9,278.1 365.0,278.9 363.3,279.9 361.9,281.0 360.8,282.3 359.9,283.8 359.4,285.5 359.2,287.2 359.3,289.1 359.7,291.0 360.6,292.9 361.7,294.9 363.2,296.8 365.0,298.6 367.1,300.4 369.4,302.0 371.9,303.4 374.6,304.6 377.5,305.6 380.3,306.3 383.2,306.7 386.0,306.9 388.7,306.7 391.2,306.3 393.5,305.6 395.5,304.6 397.1,303.4 398.5,302.0 399.5,300.4 400.1,298.6 400.3,296.8 400.2,294.9 399.7,292.9 398.9,291.0" fill="none" stroke="#3a567f" stroke-width="2.0" stroke-linejoin="round" stroke-linecap="round" opacity="0.85"/><polyline points="144.1,363.7 149.8,361.7 155.5,359.5 161.0,357.1 166.4,354.5 171.7,351.8 176.7,348.9 181.7,345.9 186.4,342.9 190.9,339.7 195.1,336.5 199.2,333.2 203.0,329.8 206.5,326.5 209.8,323.1 212.9,319.7 215.7,316.4 218.2,313.0 220.5,309.7 222.6,306.4 224.4,303.2 226.0,300.1 227.3,297.0 228.4,293.9 229.3,291.0 230.0,288.1 230.5,285.3 230.7,282.6 230.8,280.0 230.7,277.5 230.4,275.0 230.0,272.7 229.4,270.4 228.6,268.3 227.7,266.2 226.6,264.3 225.4,262.4 224.0,260.6 222.6,258.9 221.0,257.4 219.2,255.9 217.4,254.5 215.5,253.2 213.4,252.0 211.3,250.9 209.1,249.9 206.7,249.0 204.3,248.2 201.8,247.5" fill="none" stroke="#3a567f" stroke-width="2.0" stroke-linejoin="round" stroke-linecap="round" opacity="0.85"/><polyline points="431.9,363.7 426.2,361.7 420.5,359.5 415.0,357.1 409.6,354.5 404.3,351.8 399.3,348.9 394.3,345.9 389.6,342.9 385.1,339.7 380.9,336.5 376.8,333.2 373.0,329.8 369.5,326.5 366.2,323.1 363.1,319.7 360.3,316.4 357.8,313.0 355.5,309.7 353.4,306.4 351.6,303.2 350.0,300.1 348.7,297.0 347.6,293.9 346.7,291.0 346.0,288.1 345.5,285.3 345.3,282.6 345.2,280.0 345.3,277.5 345.6,275.0 346.0,272.7 346.6,270.4 347.4,268.3 348.3,266.2 349.4,264.3 350.6,262.4 352.0,260.6 353.4,258.9 355.0,257.4 356.8,255.9 358.6,254.5 360.5,253.2 362.6,252.0 364.7,250.9 366.9,249.9 369.3,249.0 371.7,248.2 374.2,247.5" fill="none" stroke="#3a567f" stroke-width="2.0" stroke-linejoin="round" stroke-linecap="round" opacity="0.85"/></g>
<g clip-path="url(#clipR)"><line x1="778.0" y1="423.8" x2="778.0" y2="410.2" stroke="#3a567f" stroke-width="2.0" opacity="0.85"/><line x1="778.0" y1="410.2" x2="778.0" y2="346.5" stroke="#3a567f" stroke-width="2.0" opacity="0.85"/><line x1="778.0" y1="346.5" x2="778.0" y2="273.5" stroke="#3a567f" stroke-width="2.0" opacity="0.85"/><line x1="778.0" y1="273.5" x2="778.0" y2="209.8" stroke="#3a567f" stroke-width="2.0" opacity="0.85"/><line x1="778.0" y1="209.8" x2="778.0" y2="196.2" stroke="#3a567f" stroke-width="2.0" opacity="0.85"/><line x1="778.0" y1="423.8" x2="902.7" y2="423.8" stroke="#3a567f" stroke-width="2.0" opacity="0.85"/><line x1="902.7" y1="423.8" x2="991.9" y2="423.8" stroke="#3a567f" stroke-width="2.0" opacity="0.85"/><line x1="991.9" y1="423.8" x2="1081.3" y2="423.8" stroke="#3a567f" stroke-width="2.0" opacity="0.85"/><line x1="1081.3" y1="423.8" x2="1206.0" y2="423.8" stroke="#3a567f" stroke-width="2.0" opacity="0.85"/><line x1="778.0" y1="196.2" x2="902.7" y2="196.2" stroke="#3a567f" stroke-width="2.0" opacity="0.85"/><line x1="902.7" y1="196.2" x2="991.9" y2="196.2" stroke="#3a567f" stroke-width="2.0" opacity="0.85"/><line x1="991.9" y1="196.2" x2="1081.3" y2="196.2" stroke="#3a567f" stroke-width="2.0" opacity="0.85"/><line x1="1081.3" y1="196.2" x2="1206.0" y2="196.2" stroke="#3a567f" stroke-width="2.0" opacity="0.85"/><line x1="991.9" y1="423.8" x2="991.9" y2="196.2" stroke="#3a567f" stroke-width="2.0" opacity="0.85"/><line x1="778.0" y1="346.5" x2="864.5" y2="346.5" stroke="#3a567f" stroke-width="2.0" opacity="0.85"/><line x1="864.5" y1="346.5" x2="864.5" y2="273.5" stroke="#3a567f" stroke-width="2.0" opacity="0.85"/><line x1="864.5" y1="273.5" x2="778.0" y2="273.5" stroke="#3a567f" stroke-width="2.0" opacity="0.85"/><line x1="1206.0" y1="346.5" x2="1119.5" y2="346.5" stroke="#3a567f" stroke-width="2.0" opacity="0.85"/><line x1="1119.5" y1="346.5" x2="1119.5" y2="273.5" stroke="#3a567f" stroke-width="2.0" opacity="0.85"/><line x1="1119.5" y1="273.5" x2="1206.0" y2="273.5" stroke="#3a567f" stroke-width="2.0" opacity="0.85"/><line x1="778.0" y1="410.2" x2="841.3" y2="410.2" stroke="#3a567f" stroke-width="2.0" opacity="0.85"/><line x1="778.0" y1="209.8" x2="841.3" y2="209.8" stroke="#3a567f" stroke-width="2.0" opacity="0.85"/><line x1="1206.0" y1="410.2" x2="1142.7" y2="410.2" stroke="#3a567f" stroke-width="2.0" opacity="0.85"/><line x1="1206.0" y1="209.8" x2="1142.7" y2="209.8" stroke="#3a567f" stroke-width="2.0" opacity="0.85"/><line x1="1206.0" y1="423.8" x2="1206.0" y2="410.2" stroke="#3a567f" stroke-width="2.0" opacity="0.85"/><line x1="1206.0" y1="410.2" x2="1206.0" y2="346.5" stroke="#3a567f" stroke-width="2.0" opacity="0.85"/><line x1="1206.0" y1="346.5" x2="1206.0" y2="273.5" stroke="#3a567f" stroke-width="2.0" opacity="0.85"/><line x1="1206.0" y1="273.5" x2="1206.0" y2="209.8" stroke="#3a567f" stroke-width="2.0" opacity="0.85"/><line x1="1206.0" y1="209.8" x2="1206.0" y2="196.2" stroke="#3a567f" stroke-width="2.0" opacity="0.85"/><line x1="864.5" y1="346.5" x2="864.5" y2="310.0" stroke="#3a567f" stroke-width="2.0" opacity="0.85"/><line x1="864.5" y1="310.0" x2="864.5" y2="273.5" stroke="#3a567f" stroke-width="2.0" opacity="0.85"/><line x1="1119.5" y1="346.5" x2="1119.5" y2="310.0" stroke="#3a567f" stroke-width="2.0" opacity="0.85"/><line x1="1119.5" y1="310.0" x2="1119.5" y2="273.5" stroke="#3a567f" stroke-width="2.0" opacity="0.85"/><polyline points="1019.3,310.0 1019.1,306.4 1018.4,302.9 1017.3,299.5 1015.7,296.3 1013.7,293.4 1011.3,290.7 1008.6,288.3 1005.7,286.3 1002.5,284.7 999.1,283.6 995.6,282.9 992.0,282.7 988.4,282.9 984.9,283.6 981.5,284.7 978.3,286.3 975.4,288.3 972.7,290.7 970.3,293.4 968.3,296.3 966.7,299.5 965.6,302.9 964.9,306.4 964.7,310.0 964.9,313.6 965.6,317.1 966.7,320.5 968.3,323.7 970.3,326.6 972.7,329.3 975.4,331.7 978.3,333.7 981.5,335.3 984.9,336.4 988.4,337.1 992.0,337.3 995.6,337.1 999.1,336.4 1002.5,335.3 1005.7,333.7 1008.6,331.7 1011.3,329.3 1013.7,326.6 1015.7,323.7 1017.3,320.5 1018.4,317.1 1019.1,313.6 1019.3,310.0" fill="none" stroke="#3a567f" stroke-width="2.0" stroke-linejoin="round" stroke-linecap="round" opacity="0.85"/><polyline points="891.8,310.0 891.6,306.4 890.9,302.9 889.8,299.5 888.2,296.3 886.2,293.4 883.8,290.7 881.1,288.3 878.2,286.3 875.0,284.7 871.6,283.6 868.1,282.9 864.5,282.7 860.9,282.9 857.4,283.6 854.0,284.7 850.8,286.3 847.9,288.3 845.2,290.7 842.8,293.4 840.8,296.3 839.2,299.5 838.1,302.9 837.4,306.4 837.2,310.0 837.4,313.6 838.1,317.1 839.2,320.5 840.8,323.7 842.8,326.6 845.2,329.3 847.9,331.7 850.8,333.7 854.0,335.3 857.4,336.4 860.9,337.1 864.5,337.3 868.1,337.1 871.6,336.4 875.0,335.3 878.2,333.7 881.1,331.7 883.8,329.3 886.2,326.6 888.2,323.7 889.8,320.5 890.9,317.1 891.6,313.6 891.8,310.0" fill="none" stroke="#3a567f" stroke-width="2.0" stroke-linejoin="round" stroke-linecap="round" opacity="0.85"/><polyline points="1146.8,310.0 1146.6,306.4 1145.9,302.9 1144.8,299.5 1143.2,296.3 1141.2,293.4 1138.8,290.7 1136.1,288.3 1133.2,286.3 1130.0,284.7 1126.6,283.6 1123.1,282.9 1119.5,282.7 1115.9,282.9 1112.4,283.6 1109.0,284.7 1105.8,286.3 1102.9,288.3 1100.2,290.7 1097.8,293.4 1095.8,296.3 1094.2,299.5 1093.1,302.9 1092.4,306.4 1092.2,310.0 1092.4,313.6 1093.1,317.1 1094.2,320.5 1095.8,323.7 1097.8,326.6 1100.2,329.3 1102.9,331.7 1105.8,333.7 1109.0,335.3 1112.4,336.4 1115.9,337.1 1119.5,337.3 1123.1,337.1 1126.6,336.4 1130.0,335.3 1133.2,333.7 1136.1,331.7 1138.8,329.3 1141.2,326.6 1143.2,323.7 1144.8,320.5 1145.9,317.1 1146.6,313.6 1146.8,310.0" fill="none" stroke="#3a567f" stroke-width="2.0" stroke-linejoin="round" stroke-linecap="round" opacity="0.85"/><polyline points="841.5,410.6 846.5,408.6 851.3,406.2 856.1,403.6 860.6,400.8 865.1,397.8 869.4,394.5 873.5,391.1 877.5,387.4 881.2,383.5 884.8,379.5 888.1,375.3 891.3,370.9 894.2,366.4 896.9,361.7 899.4,356.9 901.6,352.0 903.5,347.0 905.3,341.9 906.7,336.7 907.9,331.4 908.9,326.1 909.5,320.8 909.9,315.4 910.1,310.0 909.9,304.6 909.5,299.2 908.9,293.9 907.9,288.6 906.7,283.3 905.3,278.1 903.5,273.0 901.6,268.0 899.4,263.1 896.9,258.3 894.2,253.6 891.3,249.1 888.1,244.7 884.8,240.5 881.2,236.5 877.5,232.6 873.5,228.9 869.4,225.5 865.1,222.2 860.6,219.2 856.1,216.4 851.3,213.8 846.5,211.4 841.5,209.4" fill="none" stroke="#3a567f" stroke-width="2.0" stroke-linejoin="round" stroke-linecap="round" opacity="0.85"/><polyline points="1142.5,410.6 1137.5,408.6 1132.7,406.2 1127.9,403.6 1123.4,400.8 1118.9,397.8 1114.6,394.5 1110.5,391.1 1106.5,387.4 1102.8,383.5 1099.2,379.5 1095.9,375.3 1092.7,370.9 1089.8,366.4 1087.1,361.7 1084.6,356.9 1082.4,352.0 1080.5,347.0 1078.7,341.9 1077.3,336.7 1076.1,331.4 1075.1,326.1 1074.5,320.8 1074.1,315.4 1073.9,310.0 1074.1,304.6 1074.5,299.2 1075.1,293.9 1076.1,288.6 1077.3,283.3 1078.7,278.1 1080.5,273.0 1082.4,268.0 1084.6,263.1 1087.1,258.3 1089.8,253.6 1092.7,249.1 1095.9,244.7 1099.2,240.5 1102.8,236.5 1106.5,232.6 1110.5,228.9 1114.6,225.5 1118.9,222.2 1123.4,219.2 1127.9,216.4 1132.7,213.8 1137.5,211.4 1142.5,209.4" fill="none" stroke="#3a567f" stroke-width="2.0" stroke-linejoin="round" stroke-linecap="round" opacity="0.85"/></g>
<g opacity="0.55">
<line x1="74.0" y1="377.0" x2="778.0" y2="423.8" stroke="#ff6b6b" stroke-width="1.6" stroke-dasharray="5 5" opacity="1.0"/>
<line x1="168.6" y1="243.0" x2="778.0" y2="196.2" stroke="#ffd93d" stroke-width="1.6" stroke-dasharray="5 5" opacity="1.0"/>
<line x1="187.6" y1="312.7" x2="864.5" y2="346.5" stroke="#6bcB77" stroke-width="1.6" stroke-dasharray="5 5" opacity="1.0"/>
<line x1="204.3" y1="272.9" x2="864.5" y2="273.5" stroke="#4dd0e1" stroke-width="1.6" stroke-dasharray="5 5" opacity="1.0"/>
<line x1="229.3" y1="291.0" x2="910.1" y2="310.0" stroke="#9c88ff" stroke-width="1.6" stroke-dasharray="5 5" opacity="1.0"/>
<line x1="287.9" y1="291.0" x2="991.9" y2="310.0" stroke="#ff9f43" stroke-width="1.6" stroke-dasharray="5 5" opacity="1.0"/>
<line x1="287.9" y1="377.0" x2="991.9" y2="423.8" stroke="#ff7eb6" stroke-width="1.6" stroke-dasharray="5 5" opacity="1.0"/>
<line x1="288.0" y1="243.0" x2="991.9" y2="196.2" stroke="#54a0ff" stroke-width="1.6" stroke-dasharray="5 5" opacity="1.0"/>
<line x1="346.7" y1="291.0" x2="1073.9" y2="310.0" stroke="#c8a2c8" stroke-width="1.6" stroke-dasharray="5 5" opacity="1.0"/>
<line x1="502.0" y1="377.0" x2="1206.0" y2="423.8" stroke="#1dd1a1" stroke-width="1.6" stroke-dasharray="5 5" opacity="1.0"/>
<line x1="407.4" y1="243.0" x2="1206.0" y2="196.2" stroke="#feca57" stroke-width="1.6" stroke-dasharray="5 5" opacity="1.0"/>
</g>
<circle cx="74.0" cy="377.0" r="7" fill="#ff6b6b" stroke="#0b1220" stroke-width="1.5" filter="url(#glow)"/><text x="74.0" y="366.0" text-anchor="middle" fill="#ff6b6b" font-size="13" font-weight="700">A</text>
<circle cx="778.0" cy="423.8" r="7" fill="#ff6b6b" stroke="#0b1220" stroke-width="1.5" filter="url(#glow)"/><text x="778.0" y="412.8" text-anchor="middle" fill="#ff6b6b" font-size="13" font-weight="700">A</text>
<circle cx="168.6" cy="243.0" r="7" fill="#ffd93d" stroke="#0b1220" stroke-width="1.5" filter="url(#glow)"/><text x="168.6" y="232.0" text-anchor="middle" fill="#ffd93d" font-size="13" font-weight="700">B</text>
<circle cx="778.0" cy="196.2" r="7" fill="#ffd93d" stroke="#0b1220" stroke-width="1.5" filter="url(#glow)"/><text x="778.0" y="185.2" text-anchor="middle" fill="#ffd93d" font-size="13" font-weight="700">B</text>
<circle cx="187.6" cy="312.7" r="7" fill="#6bcB77" stroke="#0b1220" stroke-width="1.5" filter="url(#glow)"/><text x="187.6" y="301.7" text-anchor="middle" fill="#6bcB77" font-size="13" font-weight="700">C</text>
<circle cx="864.5" cy="346.5" r="7" fill="#6bcB77" stroke="#0b1220" stroke-width="1.5" filter="url(#glow)"/><text x="864.5" y="335.5" text-anchor="middle" fill="#6bcB77" font-size="13" font-weight="700">C</text>
<circle cx="204.3" cy="272.9" r="7" fill="#4dd0e1" stroke="#0b1220" stroke-width="1.5" filter="url(#glow)"/><text x="204.3" y="261.9" text-anchor="middle" fill="#4dd0e1" font-size="13" font-weight="700">D</text>
<circle cx="864.5" cy="273.5" r="7" fill="#4dd0e1" stroke="#0b1220" stroke-width="1.5" filter="url(#glow)"/><text x="864.5" y="262.5" text-anchor="middle" fill="#4dd0e1" font-size="13" font-weight="700">D</text>
<circle cx="229.3" cy="291.0" r="7" fill="#9c88ff" stroke="#0b1220" stroke-width="1.5" filter="url(#glow)"/><text x="229.3" y="280.0" text-anchor="middle" fill="#9c88ff" font-size="13" font-weight="700">E</text>
<circle cx="910.1" cy="310.0" r="7" fill="#9c88ff" stroke="#0b1220" stroke-width="1.5" filter="url(#glow)"/><text x="910.1" y="299.0" text-anchor="middle" fill="#9c88ff" font-size="13" font-weight="700">E</text>
<circle cx="287.9" cy="291.0" r="7" fill="#ff9f43" stroke="#0b1220" stroke-width="1.5" filter="url(#glow)"/><text x="287.9" y="280.0" text-anchor="middle" fill="#ff9f43" font-size="13" font-weight="700">F</text>
<circle cx="991.9" cy="310.0" r="7" fill="#ff9f43" stroke="#0b1220" stroke-width="1.5" filter="url(#glow)"/><text x="991.9" y="299.0" text-anchor="middle" fill="#ff9f43" font-size="13" font-weight="700">F</text>
<circle cx="287.9" cy="377.0" r="7" fill="#ff7eb6" stroke="#0b1220" stroke-width="1.5" filter="url(#glow)"/><text x="287.9" y="366.0" text-anchor="middle" fill="#ff7eb6" font-size="13" font-weight="700">G</text>
<circle cx="991.9" cy="423.8" r="7" fill="#ff7eb6" stroke="#0b1220" stroke-width="1.5" filter="url(#glow)"/><text x="991.9" y="412.8" text-anchor="middle" fill="#ff7eb6" font-size="13" font-weight="700">G</text>
<circle cx="288.0" cy="243.0" r="7" fill="#54a0ff" stroke="#0b1220" stroke-width="1.5" filter="url(#glow)"/><text x="288.0" y="232.0" text-anchor="middle" fill="#54a0ff" font-size="13" font-weight="700">H</text>
<circle cx="991.9" cy="196.2" r="7" fill="#54a0ff" stroke="#0b1220" stroke-width="1.5" filter="url(#glow)"/><text x="991.9" y="185.2" text-anchor="middle" fill="#54a0ff" font-size="13" font-weight="700">H</text>
<circle cx="346.7" cy="291.0" r="7" fill="#c8a2c8" stroke="#0b1220" stroke-width="1.5" filter="url(#glow)"/><text x="346.7" y="280.0" text-anchor="middle" fill="#c8a2c8" font-size="13" font-weight="700">I</text>
<circle cx="1073.9" cy="310.0" r="7" fill="#c8a2c8" stroke="#0b1220" stroke-width="1.5" filter="url(#glow)"/><text x="1073.9" y="299.0" text-anchor="middle" fill="#c8a2c8" font-size="13" font-weight="700">I</text>
<circle cx="502.0" cy="377.0" r="7" fill="#1dd1a1" stroke="#0b1220" stroke-width="1.5" filter="url(#glow)"/><text x="502.0" y="366.0" text-anchor="middle" fill="#1dd1a1" font-size="13" font-weight="700">J</text>
<circle cx="1206.0" cy="423.8" r="7" fill="#1dd1a1" stroke="#0b1220" stroke-width="1.5" filter="url(#glow)"/><text x="1206.0" y="412.8" text-anchor="middle" fill="#1dd1a1" font-size="13" font-weight="700">J</text>
<circle cx="407.4" cy="243.0" r="7" fill="#feca57" stroke="#0b1220" stroke-width="1.5" filter="url(#glow)"/><text x="407.4" y="232.0" text-anchor="middle" fill="#feca57" font-size="13" font-weight="700">K</text>
<circle cx="1206.0" cy="196.2" r="7" fill="#feca57" stroke="#0b1220" stroke-width="1.5" filter="url(#glow)"/><text x="1206.0" y="185.2" text-anchor="middle" fill="#feca57" font-size="13" font-weight="700">K</text>
<line x1="534" y1="310.0" x2="746" y2="310.0" stroke="#5ad1c8" stroke-width="2.5" marker-end="url(#arrow)" opacity="0.9"/>
<rect x="582.0" y="255.0" width="116" height="110" rx="12" fill="#111c33" stroke="url(#hgrad)" stroke-width="2"/>
<text x="640.0" y="280.0" text-anchor="middle" fill="#5ad1c8" font-size="20" font-weight="700">H</text>
<text x="606.0" y="300.0" text-anchor="middle" fill="#8aa0c0" font-size="12" font-family="monospace">h₁₁</text>
<text x="630.0" y="300.0" text-anchor="middle" fill="#8aa0c0" font-size="12" font-family="monospace">h₁₂</text>
<text x="654.0" y="300.0" text-anchor="middle" fill="#8aa0c0" font-size="12" font-family="monospace">h₁₃</text>
<text x="606.0" y="320.0" text-anchor="middle" fill="#8aa0c0" font-size="12" font-family="monospace">h₂₁</text>
<text x="630.0" y="320.0" text-anchor="middle" fill="#8aa0c0" font-size="12" font-family="monospace">h₂₂</text>
<text x="654.0" y="320.0" text-anchor="middle" fill="#8aa0c0" font-size="12" font-family="monospace">h₂₃</text>
<text x="606.0" y="340.0" text-anchor="middle" fill="#8aa0c0" font-size="12" font-family="monospace">h₃₁</text>
<text x="630.0" y="340.0" text-anchor="middle" fill="#8aa0c0" font-size="12" font-family="monospace">h₃₂</text>
<text x="654.0" y="340.0" text-anchor="middle" fill="#8aa0c0" font-size="12" font-family="monospace">1</text>
<path d="M596.0,288.0 l-5,0 l0,52 l5,0" fill="none" stroke="#8aa0c0" stroke-width="1.4"/><path d="M684.0,288.0 l5,0 l0,52 l-5,0" fill="none" stroke="#8aa0c0" stroke-width="1.4"/>
<text x="48" y="530" fill="#8aa0c0" font-size="13">Keypoints hom&#243;logos:</text>
<circle cx="180" cy="519" r="6" fill="#ff6b6b"/><text x="192" y="523" fill="#e6edf6" font-size="12"><tspan font-weight="700">A</tspan> <tspan fill="#8aa0c0">esq. inf-izq</tspan></text>
<circle cx="358" cy="519" r="6" fill="#ffd93d"/><text x="370" y="523" fill="#e6edf6" font-size="12"><tspan font-weight="700">B</tspan> <tspan fill="#8aa0c0">esq. sup-izq</tspan></text>
<circle cx="536" cy="519" r="6" fill="#6bcB77"/><text x="548" y="523" fill="#e6edf6" font-size="12"><tspan font-weight="700">C</tspan> <tspan fill="#8aa0c0">tiro libre izq</tspan></text>
<circle cx="714" cy="519" r="6" fill="#4dd0e1"/><text x="726" y="523" fill="#e6edf6" font-size="12"><tspan font-weight="700">D</tspan> <tspan fill="#8aa0c0">tiro libre izq</tspan></text>
<circle cx="892" cy="519" r="6" fill="#9c88ff"/><text x="904" y="523" fill="#e6edf6" font-size="12"><tspan font-weight="700">E</tspan> <tspan fill="#8aa0c0">vértice 3pt izq</tspan></text>
<circle cx="1070" cy="519" r="6" fill="#ff9f43"/><text x="1082" y="523" fill="#e6edf6" font-size="12"><tspan font-weight="700">F</tspan> <tspan fill="#8aa0c0">centro cancha</tspan></text>
<circle cx="180" cy="545" r="6" fill="#ff7eb6"/><text x="192" y="549" fill="#e6edf6" font-size="12"><tspan font-weight="700">G</tspan> <tspan fill="#8aa0c0">banda inf. medio</tspan></text>
<circle cx="358" cy="545" r="6" fill="#54a0ff"/><text x="370" y="549" fill="#e6edf6" font-size="12"><tspan font-weight="700">H</tspan> <tspan fill="#8aa0c0">banda sup. medio</tspan></text>
<circle cx="536" cy="545" r="6" fill="#c8a2c8"/><text x="548" y="549" fill="#e6edf6" font-size="12"><tspan font-weight="700">I</tspan> <tspan fill="#8aa0c0">vértice 3pt dcha</tspan></text>
<circle cx="714" cy="545" r="6" fill="#1dd1a1"/><text x="726" y="549" fill="#e6edf6" font-size="12"><tspan font-weight="700">J</tspan> <tspan fill="#8aa0c0">esq. inf-dcha</tspan></text>
<circle cx="892" cy="545" r="6" fill="#feca57"/><text x="904" y="549" fill="#e6edf6" font-size="12"><tspan font-weight="700">K</tspan> <tspan fill="#8aa0c0">esq. sup-dcha</tspan></text>
</svg>